%
M48
M72
T01C0.0236
T02C0.0240
T03C0.0320
T04C0.0394
T05C0.0440
%
T01
X5265Y2680
X10265Y6680
X24265Y7180
X9265Y15180
X30765Y15680
T02
X27965Y2880
X4565Y5480
T03
X7265Y1680
X8265Y1680
X9265Y1680
X10265Y1680
X11265Y1680
X14765Y2180
X15765Y2180
X17765Y2180
X17265Y3680
X16265Y3680
X16765Y4430
X14765Y4180
X15765Y5680
X18765Y5680
X22765Y4180
X22765Y3180
X21765Y1680
X23765Y1680
X30265Y2680
X30265Y4680
X28265Y5680
X26265Y5680
X26765Y7180
X27765Y7180
X20265Y12680
X17265Y12680
X15765Y11030
X14765Y11030
X13765Y11030
X12765Y11030
X10265Y9680
X9265Y9680
X9765Y13680
X10765Y13680
X12765Y14330
X13765Y14330
X14765Y14330
X15765Y14330
X17265Y14680
X17265Y15680
X15265Y15680
X14265Y15680
X13265Y15680
X11765Y15680
X10765Y15680
X19265Y14680
T04
X8485Y14180
X6084Y14180
X7265Y12290
T05
X17265Y10680
X21265Y10680
X11765Y3680
X10265Y3680
X8765Y3680
M30
